#!OML:ASF F:\VICON\USERDATA\INSTALL\Justin_Nancy\Justin_Nancy.ASF
:FULLY-SPECIFIED
:DEGREES
178
root -12.8059 17.5156 11.387 -79.8315 -83.8798 89.089
lowerback 9.01262 -0.307967 -6.27627
upperback -0.308592 -1.06906 0.431179
thorax -5.26999 -0.356392 4.13171
lowerneck -17.8086 -3.0765 -8.45768
upperneck 18.9415 -3.05528 4.69122
head 9.09465 -1.56803 2.60349
rclavicle 4.67144e-015 -1.11319e-014
rhumerus -60.0489 14.0288 -97.6809
rradius 110.777
rwrist -11.3532
rhand -9.06382 23.221
rfingers 7.12502
rthumb 16.885 -6.06498
lclavicle 4.67144e-015 -1.11319e-014
lhumerus -42.2904 -8.02524 93.7649
lradius 119.45
lwrist 27.048
lhand -11.1345 6.89907
lfingers 7.12502
lthumb 14.8909 36.3439
rfemur -39.6413 -2.86594 26.4641
rtibia 38.7213
rfoot -9.9413 1.03685
rtoes 10.6317
lfemur 8.49415 -13.5517 -23.8808
ltibia 25.8509
lfoot 24.154 -11.0454
ltoes -17.8157
179
root -13.1896 17.5444 11.4317 -84.7413 -83.4429 94.0567
lowerback 8.74963 -0.328643 -6.59881
upperback -0.309846 -1.11931 0.301069
thorax -5.11452 -0.380239 4.17769
lowerneck -18.1126 -2.88303 -8.18436
upperneck 19.0484 -2.73575 4.24158
head 9.15339 -1.44574 2.44446
rclavicle 4.07509e-015 7.95139e-016
rhumerus -59.8146 13.2517 -97.1713
rradius 111.089
rwrist -11.7533
rhand -7.47103 22.6503
rfingers 7.12502
rthumb 18.4177 -6.49778
lclavicle 4.07509e-015 7.95139e-016
lhumerus -42.561 -8.42442 93.8246
lradius 118.778
lwrist 26.5533
lhand -11.1713 7.22549
lfingers 7.12502
lthumb 14.8555 36.6729
rfemur -39.1983 -3.27118 26.6772
rtibia 35.9295
rfoot -9.28061 0.655202
rtoes 8.45983
lfemur 8.42874 -14.0291 -24.6983
ltibia 26.6001
lfoot 26.8054 -13.3303
ltoes -5.06341
180
root -13.5689 17.5608 11.4804 -88.6763 -83.2205 97.827
lowerback 8.74863 -0.334972 -6.5933
upperback -0.283776 -1.12965 0.249067
thorax -5.08633 -0.388182 4.12076
lowerneck -18.1506 -2.72689 -8.02063
upperneck 18.831 -2.48503 3.94099
head 9.06221 -1.34483 2.3447
rclavicle 1.59028e-015 7.95139e-016
rhumerus -59.7258 12.66 -96.8115
rradius 111.324
rwrist -11.3357
rhand -6.73816 22.653
rfingers 7.12502
rthumb 19.1226 -6.42693
lclavicle 1.59028e-015 7.95139e-016
lhumerus -42.8932 -8.83276 93.9941
lradius 117.859
lwrist 25.7052
lhand -11.4375 7.46881
lfingers 7.12502
lthumb 14.599 36.935
rfemur -38.5681 -4.02553 27.2509
rtibia 33.7907
rfoot -8.55033 0.0808565
rtoes 6.29424
lfemur 8.32837 -14.2634 -25.2647
ltibia 28.0372
lfoot 28.9054 -14.9564
ltoes 3.13885
181
root -13.9447 17.5697 11.5354 -92.3714 -82.9054 101.345
lowerback 8.69811 -0.314045 -6.67812
upperback -0.193353 -1.10415 0.254747
thorax -4.96409 -0.380481 4.16934
lowerneck -18.1801 -2.63166 -7.97544
upperneck 18.5838 -2.28184 3.61689
head 8.96553 -1.27655 2.24992
rclavicle -8.05078e-015 -1.27222e-014
rhumerus -59.5696 12.3701 -96.4504
rradius 111.497
rwrist -10.1621
rhand -8.18002 23.0938
rfingers 7.12502
rthumb 17.7356 -6.11738
lclavicle -8.05078e-015 -1.27222e-014
lhumerus -43.1052 -9.0319 94.3036
lradius 116.85
lwrist 24.8926
lhand -11.665 7.53466
lfingers 7.12502
lthumb 14.3798 37.0166
rfemur -38.1151 -5.01546 27.7435
rtibia 32.4502
rfoot -7.75737 -0.618828
rtoes 7.59607
lfemur 7.98986 -14.2487 -25.8243
ltibia 29.9969
lfoot 29.8632 -15.9262
ltoes 6.71443
182
root -14.3143 17.563 11.5929 -95.8373 -82.9134 104.677
lowerback 8.64342 -0.249063 -6.41695
upperback -0.105266 -0.975634 0.403745
thorax -4.85675 -0.327393 4.16079
lowerneck -18.4416 -2.64838 -8.06037
upperneck 18.65 -2.18647 3.2966
head 9.02828 -1.27187 2.16501
rclavicle -5.1684e-015 4.77083e-015
rhumerus -59.3042 12.0048 -95.8471
rradius 111.772
rwrist -9.55045
rhand -9.33071 23.4798
rfingers 7.12502
rthumb 16.6281 -5.82794
lclavicle -5.1684e-015 4.77083e-015
lhumerus -43.2421 -9.21597 94.6463
lradius 115.881
lwrist 25.1821
lhand -11.0683 7.39812
lfingers 7.12502
lthumb 14.9547 36.8382
rfemur -37.8003 -5.89646 28.5061
rtibia 31.8236
rfoot -6.95218 -1.51348
rtoes 10.2744
lfemur 7.33319 -13.9298 -25.7862
ltibia 32.3714
lfoot 29.4091 -16.2993
ltoes 8.9577
183
root -14.6797 17.5402 11.6433 -98.3938 -82.7403 106.926
lowerback 8.82594 -0.161646 -6.34377
upperback -0.00673612 -0.85914 0.476758
thorax -4.8695 -0.27319 4.1842
lowerneck -18.6791 -2.69778 -8.22037
upperneck 18.6889 -2.13766 3.07722
head 9.08243 -1.28343 2.12082
rclavicle -1.35174e-014 -1.27222e-014
rhumerus -58.9706 11.5478 -95.4099
rradius 112.046
rwrist -9.58724
rhand -9.34899 23.6564
rfingers 7.12502
rthumb 16.6105 -5.65276
lclavicle -1.35174e-014 -1.27222e-014
lhumerus -43.5279 -9.46612 94.8581
lradius 114.962
lwrist 25.6498
lhand -10.5136 7.35206
lfingers 7.12502
lthumb 15.489 36.7516
rfemur -37.3239 -6.26129 28.722
rtibia 31.8894
rfoot -6.07218 -2.47826
rtoes 11.1794
lfemur 6.64878 -13.4479 -25.8177
ltibia 35.0213
lfoot 28.3052 -16.3512
ltoes 8.82219
184
root -15.0444 17.5119 11.6802 -101.157 -82.507 109.198
lowerback 9.0888 -0.0770666 -6.33445
upperback 0.172954 -0.763167 0.4528
thorax -4.84018 -0.233188 4.14428
lowerneck -18.5277 -2.64449 -8.17813
upperneck 18.2587 -2.02224 2.8111
head 8.89758 -1.24709 2.03522
rclavicle -3.37934e-015 5.56597e-015
rhumerus -58.4299 10.956 -95.1873
rradius 112.318
rwrist -9.97201
rhand -8.47256 23.5711
rfingers 7.12502
rthumb 17.4541 -5.6653
lclavicle -3.37934e-015 5.56597e-015
lhumerus -43.8005 -9.67692 95.1535
lradius 113.881
lwrist 24.9722
lhand -10.8659 7.29496
lfingers 7.12502
lthumb 15.1497 36.7204
rfemur -36.5605 -5.89054 28.5004
rtibia 32.4358
rfoot -5.19055 -3.34774
rtoes 11.7118
lfemur 5.99312 -12.8311 -25.8196
ltibia 37.8909
lfoot 27.0909 -16.4222
ltoes 6.7216
185
root -15.4106 17.4734 11.7209 -102.651 -82.1617 110.162
lowerback 9.39916 0.0804711 -6.64191
upperback 0.316291 -0.604328 0.515862
thorax -4.87957 -0.150558 4.36767
lowerneck -18.1205 -2.56969 -8.23198
upperneck 17.6942 -1.8724 2.51833
head 8.62226 -1.20266 1.96156
rclavicle -7.95139e-016 -1.35174e-014
rhumerus -57.9143 10.2916 -94.5096
rradius 112.63
rwrist -9.32526
rhand -8.31161 23.4617
rfingers 7.12502
rthumb 17.609 -5.76084
lclavicle -7.95139e-016 -1.35174e-014
lhumerus -43.9944 -9.88498 95.6823
lradius 112.562
lwrist 24.0201
lhand -10.4018 7.29402
lfingers 7.12502
lthumb 15.5967 36.6852
rfemur -35.788 -5.64515 28.057
rtibia 33.3284
rfoot -4.16405 -3.57378
rtoes 12.0942
lfemur 5.27418 -12.3287 -25.9601
ltibia 40.8142
lfoot 25.6506 -16.0921
ltoes 5.63996
186
root -15.7807 17.4376 11.7736 -104.702 -82.2778 111.652
lowerback 9.72434 0.355109 -6.47006
upperback 0.493394 -0.229955 0.734398
thorax -4.92156 0.0285468 4.45358
lowerneck -17.8019 -2.65609 -8.25637
upperneck 17.265 -1.96443 2.29631
head 8.42457 -1.26326 1.8776
rclavicle -9.74045e-015 -2.38542e-015
rhumerus -57.2882 9.60269 -93.7718
rradius 112.724
rwrist -8.09524
rhand -9.64468 23.6529
rfingers 7.12502
rthumb 16.3258 -5.67995
lclavicle -9.74045e-015 -2.38542e-015
lhumerus -44.0937 -10.4013 96.2624
lradius 111.212
lwrist 23.2077
lhand -10.0123 6.99332
lfingers 7.12502
lthumb 15.9718 36.3549
rfemur -34.8868 -5.95936 28.1628
rtibia 34.3738
rfoot -3.00669 -2.81935
rtoes 17.7375
lfemur 4.50904 -11.833 -25.6006
ltibia 43.7895
lfoot 24.0238 -15.093
ltoes 5.22023
187
root -16.157 17.4002 11.8263 -106.559 -82.4901 112.728
lowerback 10.229 0.430866 -6.04134
upperback 0.707206 -0.103563 0.94339
thorax -4.99461 0.0785075 4.41723
lowerneck -17.5452 -2.66596 -8.42607
upperneck 17.0044 -1.93549 2.19095
head 8.29164 -1.26786 1.87321
rclavicle -1.98785e-015 -1.43125e-014
rhumerus -56.5478 9.44356 -93.4003
rradius 112.704
rwrist -7.98761
rhand -10.1757 23.8095
rfingers 7.12502
rthumb 15.8145 -5.56461
lclavicle -1.98785e-015 -1.43125e-014
lhumerus -44.3505 -10.414 96.794
lradius 109.848
lwrist 22.1226
lhand -10.609 6.48983
lfingers 7.12502
lthumb 15.3971 35.8965
rfemur -33.6246 -6.68354 28.3396
rtibia 35.4661
rfoot -2.12631 -1.64641
rtoes 25.0248
lfemur 3.85454 -11.1581 -25.0403
ltibia 46.8686
lfoot 22.9197 -14.4965
ltoes 4.45495
188
root -16.5366 17.3497 11.8597 -108.112 -82.7114 113.683
lowerback 10.4609 0.312083 -5.63123
upperback 0.838239 -0.223037 1.05122
thorax -4.97237 0.006337 4.31712
lowerneck -17.3359 -2.39979 -8.21806
upperneck 16.9953 -1.58196 1.85759
head 8.22788 -1.12453 1.77127
rclavicle -4.77083e-015 2.38542e-014
rhumerus -55.8131 9.59126 -93.4337
rradius 112.66
rwrist -8.50704
rhand -10.1059 24.0538
rfingers 7.12502
rthumb 15.8817 -5.31496
lclavicle -4.77083e-015 2.38542e-014
lhumerus -44.9165 -9.9626 96.9567
lradius 108.594
lwrist 20.8718
lhand -11.8242 5.7684
lfingers 7.12502
lthumb 14.2264 35.2612
rfemur -32.2766 -6.95195 28.5452
rtibia 36.5569
rfoot -2.73449 -1.95114
rtoes 26.1975
lfemur 2.80736 -10.1937 -24.129
ltibia 50.0371
lfoot 22.107 -14.5539
ltoes 4.08329
